<svg width="1000" height="1069" viewBox="0 0 947 1069" fill="none" xmlns="http://www.w3.org/2000/svg">
<g clip-path="url(#clip0_638_2991)">
<rect x="368.478" y="-348" width="1101.45" height="1166.94" rx="92" transform="rotate(16.81 368.478 -348)" fill="#97FBB9"/>
<g clip-path="url(#clip1_638_2991)">
<path d="M431.742 264.432C410.334 257.071 387.11 268.76 379.71 290.151C368.096 323.729 369.058 347.265 370.534 357.897C371.064 361.741 373.722 364.961 377.382 366.246L411.493 378.23C415.177 379.521 419.261 378.633 422.081 375.94C429.897 368.489 445.363 350.543 457.152 316.742C464.621 295.307 453.244 271.822 431.742 264.432V264.432Z" fill="url(#paint0_radial_638_2991)"/>
<path d="M650.998 465.611C631.907 453.493 606.575 459.466 594.349 478.546C575.161 508.492 570.562 531.594 569.497 542.276C569.111 546.135 570.934 549.879 574.194 551.98L604.553 571.542C607.829 573.653 612.01 573.738 615.386 571.777C624.738 566.344 643.995 552.486 663.408 522.359C675.717 503.258 670.171 477.789 650.998 465.611V465.611Z" fill="url(#paint1_radial_638_2991)"/>
<path d="M80.0229 311.041C102.567 309.281 122.143 326.432 123.999 349.022C126.91 384.464 120.143 407.031 116.077 416.961C114.608 420.551 111.243 423.008 107.379 423.336L71.3918 426.384C67.509 426.713 63.7758 424.829 61.7131 421.514C55.9986 412.33 45.4842 391.057 42.4594 355.351C40.5408 332.703 57.3778 312.805 80.0229 311.041Z" fill="url(#paint2_radial_638_2991)"/>
<path d="M652.043 552.501C628.927 506.615 572.713 488.748 526.831 511.732C454.828 547.797 419.134 587.513 404.699 607.106C399.478 614.19 398.691 623.621 402.602 631.509L439.035 705.044C442.965 712.979 451.003 718.014 459.843 718.12C484.336 718.418 537.858 713.821 610.504 677.669C656.573 654.738 675.26 598.594 652.043 552.501V552.501Z" fill="url(#paint3_radial_638_2991)"/>
<path d="M43.0067 402.983C66.1229 357.092 122.337 339.23 168.219 362.209C240.222 398.279 275.916 437.995 290.351 457.583C295.572 464.668 296.359 474.099 292.448 481.991L256.015 555.521C252.085 563.456 244.047 568.492 235.207 568.597C210.713 568.896 157.191 564.298 84.5459 528.146C38.4765 505.22 19.7897 449.071 43.0067 402.983Z" fill="url(#paint4_radial_638_2991)"/>
<path d="M347.629 320.66C260.874 321.234 191.582 393.14 191.81 480.088C192.164 616.528 225.345 891.712 244.098 928.366C250.881 941.62 264.548 949.912 279.413 949.912H417.97C432.922 949.912 446.58 941.493 453.39 928.155C472.261 891.199 505.577 615.366 505.577 477.879C505.577 390.69 434.759 320.077 347.629 320.66Z" fill="url(#paint5_radial_638_2991)"/>
<path d="M282.492 443.139C277.252 443.139 273 438.877 273 433.626V418.125C273 412.869 277.252 408.612 282.492 408.612C287.733 408.612 291.985 412.869 291.985 418.125V433.626C291.985 438.877 287.733 443.139 282.492 443.139Z" fill="#333941"/>
<path d="M409.477 443.139C404.236 443.139 399.984 438.877 399.984 433.626V418.125C399.984 412.869 404.236 408.612 409.477 408.612C414.722 408.612 418.969 412.869 418.969 418.125V433.626C418.969 438.877 414.722 443.139 409.477 443.139Z" fill="#333941"/>
<path d="M346.691 478.994C335.73 478.994 325.437 474.396 318.45 466.384C314.999 462.43 315.402 456.419 319.347 452.961C323.296 449.508 329.29 449.907 332.741 453.865C336.124 457.741 341.206 459.968 346.691 459.968C352.176 459.968 357.258 457.741 360.641 453.865C364.092 449.907 370.086 449.508 374.035 452.966C377.985 456.424 378.383 462.43 374.933 466.389C367.945 474.396 357.652 478.994 346.691 478.994V478.994Z" fill="#333941"/>
<path d="M263.492 584.193C258.252 584.193 254 579.937 254 574.68V554.125C254 548.869 258.252 544.612 263.492 544.612C268.733 544.612 272.984 548.869 272.984 554.125V574.68C272.984 579.937 268.733 584.193 263.492 584.193Z" fill="white"/>
<path d="M345.492 689.193C340.252 689.193 336 684.937 336 679.68V659.125C336 653.869 340.252 649.612 345.492 649.612C350.737 649.612 354.984 653.869 354.984 659.125V679.68C354.984 684.937 350.737 689.193 345.492 689.193Z" fill="white"/>
<path d="M419.492 603.198C414.252 603.198 410 598.937 410 593.685V573.125C410 567.873 414.252 563.612 419.492 563.612C424.733 563.612 428.984 567.873 428.984 573.125V593.685C428.984 598.937 424.733 603.198 419.492 603.198Z" fill="white"/>
<path d="M428.492 814.198C423.252 814.198 419 809.937 419 804.685V784.125C419 778.873 423.252 774.612 428.492 774.612C433.737 774.612 437.984 778.873 437.984 784.125V804.685C437.984 809.937 433.737 814.198 428.492 814.198Z" fill="white"/>
<path d="M271.492 774.198C266.252 774.198 262 769.937 262 764.685V744.125C262 738.873 266.252 734.612 271.492 734.612C276.737 734.612 280.984 738.873 280.984 744.125V764.685C280.984 769.937 276.737 774.198 271.492 774.198Z" fill="white"/>
<path d="M133.36 501.122C132.064 501.122 130.75 500.858 129.492 500.295L110.767 491.903C105.982 489.758 103.833 484.131 105.973 479.336C108.113 474.541 113.728 472.387 118.512 474.532L137.242 482.924C142.027 485.069 144.172 490.696 142.032 495.491C140.453 499.026 136.988 501.122 133.36 501.122Z" fill="white"/>
<path d="M120.461 430.343C119.165 430.343 117.85 430.079 116.593 429.511L97.8628 421.119C93.0783 418.974 90.9332 413.352 93.0735 408.552C95.209 403.757 100.824 401.607 105.613 403.752L124.338 412.145C129.123 414.29 131.273 419.917 129.132 424.712C127.553 428.246 124.089 430.343 120.461 430.343Z" fill="white"/>
<path d="M561.69 649.519C558.057 649.519 554.597 647.423 553.018 643.888C550.878 639.093 553.023 633.466 557.807 631.321L576.538 622.929C581.327 620.784 586.937 622.938 589.077 627.733C591.217 632.528 589.072 638.155 584.288 640.3L565.558 648.692C564.3 649.255 562.981 649.519 561.69 649.519V649.519Z" fill="white"/>
<path d="M574.589 578.74C570.961 578.74 567.496 576.644 565.918 573.109C563.777 568.314 565.922 562.687 570.712 560.542L589.437 552.15C594.226 550.005 599.841 552.154 601.976 556.949C604.117 561.749 601.972 567.371 597.187 569.516L578.457 577.908C577.2 578.471 575.885 578.74 574.589 578.74V578.74Z" fill="white"/>
</g>
</g>
<defs>
<radialGradient id="paint0_radial_638_2991" cx="0" cy="0" r="1" gradientUnits="userSpaceOnUse" gradientTransform="translate(423.5 281.612) rotate(86.2245) scale(98.7142 98.6072)">
<stop stop-color="#FFA0AB"/>
<stop offset="1" stop-color="#FF6E7F"/>
</radialGradient>
<radialGradient id="paint1_radial_638_2991" cx="0" cy="0" r="1" gradientUnits="userSpaceOnUse" gradientTransform="translate(654.348 488.121) rotate(155.82) scale(83.488 59.787)">
<stop stop-color="#FFA0AB"/>
<stop offset="1" stop-color="#FF7F8E"/>
</radialGradient>
<radialGradient id="paint2_radial_638_2991" cx="0" cy="0" r="1" gradientUnits="userSpaceOnUse" gradientTransform="translate(69.4194 334.646) rotate(52.971) scale(100.435 71.9231)">
<stop stop-color="#FFA0AB"/>
<stop offset="1" stop-color="#FF6E7F"/>
</radialGradient>
<radialGradient id="paint3_radial_638_2991" cx="0" cy="0" r="1" gradientUnits="userSpaceOnUse" gradientTransform="translate(626.5 567.112) rotate(158.565) scale(145.031 175.509)">
<stop offset="0.0764435" stop-color="#01E293"/>
<stop offset="1" stop-color="#00C680"/>
</radialGradient>
<radialGradient id="paint4_radial_638_2991" cx="0" cy="0" r="1" gradientUnits="userSpaceOnUse" gradientTransform="translate(95 411.112) rotate(51.3129) scale(163.982 198.445)">
<stop stop-color="#01E192"/>
<stop offset="1" stop-color="#01C480"/>
</radialGradient>
<radialGradient id="paint5_radial_638_2991" cx="0" cy="0" r="1" gradientUnits="userSpaceOnUse" gradientTransform="translate(298.5 416.112) rotate(78.9187) scale(442.245 220.519)">
<stop stop-color="#1AFAAB"/>
<stop offset="1" stop-color="#01C47F"/>
</radialGradient>
<clipPath id="clip0_638_2991">
<rect width="947" height="1069" fill="white"/>
</clipPath>
<clipPath id="clip1_638_2991">
<rect width="700.572" height="691.412" fill="white" transform="translate(109.956 70.0352) rotate(16.81)"/>
</clipPath>
</defs>
</svg>
