<svg width="500" height="500" viewBox="0 0 500 500" fill="none" xmlns="http://www.w3.org/2000/svg">
<g clip-path="url(#clip0_225_503)">
<path d="M452.85 221.86C452.85 221.86 452.85 221.77 452.85 221.62V220.96C452.85 220.36 452.85 219.51 452.85 218.43C452.85 216.21 452.85 213.01 452.767 208.99L452.923 209.14L402.14 209.23C402.255 209.12 401.879 209.48 402.401 208.99V215.51C402.401 217.65 402.401 219.77 402.401 221.84L402.151 221.59L438.341 221.7L449.019 221.77H451.911H452.662C452.753 221.762 452.843 221.762 452.934 221.77H452.704H451.973H449.145L438.414 222L402.046 222.11H401.796V221.87C401.796 219.8 401.796 217.68 401.796 215.54V209L402.057 208.75L452.84 208.84H453.028V209C453.028 213.06 452.965 216.29 452.944 218.53C452.944 219.6 452.944 220.43 452.944 221.03C452.944 221.29 452.944 221.5 452.944 221.66C452.922 221.73 452.89 221.798 452.85 221.86Z" fill="#E0E0E0"/>
<path d="M550.533 87.2408C550.524 87.1644 550.524 87.0872 550.533 87.0108C550.533 86.8408 550.533 86.6208 550.533 86.3508C550.533 85.7408 550.533 84.9008 550.533 83.8108C550.533 81.5908 550.481 78.4008 550.45 74.3708L550.606 74.5208L499.823 74.6208C499.938 74.5108 499.563 74.8708 500.074 74.3708V87.2408L499.813 87.0008L536.003 87.1108L546.692 87.1808H549.583H550.335H550.606C550.527 87.1902 550.446 87.1902 550.366 87.1808H549.646H546.807L536.18 87.2508L499.813 87.3608H499.562V74.3908C500.074 73.9008 499.698 74.2508 499.823 74.1408L550.606 74.2408H550.763V74.3908C550.763 78.4608 550.69 81.6808 550.669 83.9208C550.669 84.9908 550.669 85.8308 550.669 86.4208C550.669 86.6808 550.669 86.8908 550.669 87.0608C550.629 87.1246 550.584 87.1848 550.533 87.2408Z" fill="#E0E0E0"/>
<path d="M265.711 424.62L254.229 429.35L255.001 364.1C255.356 356.29 251.608 352.96 249.573 350.74C231.087 330.6 203.519 345.21 203.279 365.62L202.59 423.93L191.41 423.81L192.517 362.81C192.6 355.94 198.174 344.02 203.801 339.75C234.907 316.14 266.734 340.53 266.431 366.33L265.711 424.62Z" fill="#F5F5F5"/>
<path d="M265.71 424.621V423.452C265.71 422.682 265.71 421.552 265.71 420.072C265.71 417.072 265.773 412.722 265.814 407.072C265.856 401.422 265.929 394.571 266.002 386.581C266.044 382.581 266.086 378.325 266.128 373.811C266.128 369.291 266.556 364.482 265.585 359.542C264.613 354.368 262.425 349.475 259.186 345.232C258.758 344.682 258.351 344.121 257.902 343.581C257.453 343.041 256.942 342.581 256.462 342.031C255.481 340.989 254.435 340.004 253.33 339.081C252.798 338.591 252.171 338.201 251.587 337.751C251.002 337.301 250.428 336.842 249.771 336.482C248.506 335.674 247.188 334.946 245.825 334.301C243.036 332.958 240.084 331.95 237.036 331.301L234.677 330.931L233.497 330.741L232.297 330.672L229.875 330.521C229.061 330.521 228.247 330.572 227.432 330.602C220.684 330.895 214.152 332.972 208.56 336.602C202.675 340.419 198.061 345.779 195.272 352.042C193.87 355.272 192.95 358.675 192.537 362.151C192.224 365.651 192.307 369.261 192.234 372.871C192.067 387.341 191.89 402.322 191.712 417.672C191.712 419.718 191.688 421.758 191.639 423.792L191.378 423.531L202.558 423.651L202.297 423.901C202.429 412.301 202.565 400.968 202.704 389.901C202.766 384.395 202.833 378.965 202.902 373.611C202.902 370.945 202.933 368.295 202.996 365.661C203.056 363.032 203.513 360.425 204.353 357.922C206.066 353.05 209.293 348.796 213.602 345.732C214.112 345.346 214.645 344.988 215.199 344.661L216.869 343.661C218.002 343.087 219.178 342.592 220.387 342.181C221.581 341.765 222.806 341.43 224.05 341.181C224.666 341.051 225.293 341.001 225.908 340.901L226.837 340.781H227.777C230.229 340.651 232.689 340.85 235.084 341.371C237.418 341.908 239.671 342.732 241.785 343.822C247.802 347.021 252.291 352.329 254.311 358.632C254.901 360.586 255.252 362.599 255.355 364.632C255.355 365.132 255.355 365.631 255.407 366.121C255.46 366.611 255.407 367.121 255.407 367.591C255.407 368.591 255.407 369.531 255.407 370.491C255.407 372.401 255.407 374.281 255.334 376.121C255.23 383.481 255.146 390.241 255.063 396.341C254.885 408.531 254.75 418.072 254.656 424.411L254.583 424.341L263.017 424.471H265.105H265.783H263.048L254.572 424.422H254.499V424.352C254.499 418.012 254.645 408.471 254.76 396.281C254.823 390.181 254.896 383.411 254.969 376.051C254.969 374.211 254.969 372.332 255.032 370.422C255.032 369.422 255.032 368.501 255.032 367.521C255.032 367.041 255.032 366.521 255.032 366.061L254.969 364.591C254.814 360.493 253.544 356.505 251.284 353.021C248.929 349.291 245.592 346.219 241.608 344.111C239.529 343.044 237.315 342.238 235.021 341.711C232.656 341.203 230.228 341.015 227.808 341.151H226.89L225.981 341.281C225.366 341.371 224.75 341.421 224.144 341.551C221.692 342.053 219.322 342.87 217.098 343.982L215.46 344.922C214.918 345.225 214.395 345.559 213.894 345.922C209.66 348.938 206.493 353.127 204.823 357.922C204.001 360.38 203.558 362.94 203.508 365.521C203.508 368.148 203.476 370.798 203.414 373.471C203.351 378.805 203.288 384.235 203.226 389.762C203.1 400.762 202.965 412.132 202.829 423.762V424.012H202.568L191.378 423.892H191.117V423.642C191.117 421.642 191.142 419.601 191.19 417.521C191.378 402.181 191.556 387.201 191.733 372.721C191.806 369.101 191.733 365.532 192.036 361.952C192.462 358.43 193.4 354.984 194.823 351.711C196.278 348.584 198.16 345.655 200.418 343.001C202.706 340.416 205.342 338.132 208.257 336.211C213.922 332.531 220.542 330.426 227.38 330.132C228.205 330.132 229.03 330.041 229.854 330.061L232.662 330.221L234.207 330.392L236.545 330.762L237.589 330.982C240.487 331.631 243.292 332.619 245.94 333.922C247.323 334.571 248.658 335.31 249.938 336.132C250.595 336.502 251.159 337.002 251.764 337.422C252.37 337.842 252.986 338.272 253.539 338.762C254.644 339.701 255.69 340.703 256.67 341.762L258.132 343.331C258.581 343.881 258.988 344.452 259.416 345.012C262.684 349.302 264.887 354.251 265.856 359.482C266.827 364.482 266.336 369.321 266.368 373.841C266.399 378.361 266.242 382.661 266.19 386.661C266.075 394.661 265.971 401.542 265.888 407.172C265.804 412.802 265.741 417.171 265.689 420.111C265.689 421.571 265.689 422.701 265.627 423.461C265.564 424.221 265.71 424.621 265.71 424.621Z" fill="#E0E0E0"/>
<path d="M178.64 385.721L279.886 386.821C280.921 386.832 281.909 387.237 282.633 387.946C283.357 388.656 283.757 389.611 283.745 390.603L282.857 465.568C282.847 466.47 282.463 467.331 281.789 467.961C281.116 468.592 280.21 468.94 279.268 468.93L177.709 467.826L178.681 385.721L178.64 385.721Z" fill="#E0E0E0"/>
<path d="M178.641 385.511L267.681 386.364C268.805 386.375 269.878 386.813 270.665 387.582C271.452 388.351 271.888 389.388 271.877 390.465L271.115 463.465C271.101 464.791 270.538 466.057 269.549 466.986C268.56 467.914 267.227 468.428 265.843 468.415L177.931 467.573C176.768 467.562 175.658 467.108 174.844 466.313C174.03 465.517 173.579 464.445 173.591 463.331L174.361 389.531C174.372 388.454 174.829 387.426 175.632 386.672C176.435 385.918 177.517 385.501 178.641 385.511Z" fill="#EBEBEB"/>
<path d="M235.751 420.151C235.77 418.617 235.466 417.095 234.859 415.675C234.251 414.256 233.352 412.967 232.215 411.887C231.078 410.807 229.726 409.957 228.239 409.387C226.752 408.817 225.16 408.54 223.559 408.571C220.479 408.659 217.551 409.87 215.372 411.957C213.193 414.045 211.929 416.85 211.837 419.801C211.789 422.303 212.601 424.75 214.147 426.767C215.694 428.784 217.89 430.257 220.396 430.961L212.411 446.681L233.027 447.271L226.931 431.001C229.432 430.356 231.646 428.948 233.237 426.99C234.829 425.033 235.711 422.632 235.751 420.151Z" fill="#E0E0E0"/>
<path d="M270.542 461.09C270.396 461.09 270.542 446.8 270.803 429.18C271.064 411.56 271.44 397.26 271.586 397.26C271.732 397.26 271.586 411.55 271.325 429.18C271.064 446.81 270.688 461.1 270.542 461.09Z" fill="#FAFAFA"/>
<path d="M248.789 389C248.789 389.14 235.668 389.28 219.478 389.31C203.288 389.34 190.156 389.25 190.156 389.11C190.156 388.97 203.277 388.84 219.478 388.81C235.678 388.78 248.789 388.84 248.789 389Z" fill="white"/>
<path d="M211.378 426.06C211.174 425.848 211.008 425.605 210.888 425.34C210.513 424.644 210.212 423.914 209.99 423.16C209.243 420.649 209.312 417.979 210.189 415.507C211.065 413.034 212.707 410.876 214.896 409.32C215.547 408.849 216.246 408.444 216.984 408.11C217.243 407.972 217.526 407.877 217.819 407.83C217.819 407.91 216.681 408.38 215.115 409.6C213.059 411.173 211.516 413.278 210.67 415.666C209.825 418.053 209.712 420.623 210.345 423.07C210.856 425 211.462 426 211.378 426.06Z" fill="white"/>
<path d="M216.075 431.54C216.002 431.66 215.303 431.37 214.51 430.9C213.716 430.43 213.142 429.95 213.215 429.83C213.288 429.71 213.998 430 214.791 430.47C215.585 430.94 216.075 431.42 216.075 431.54Z" fill="white"/>
<path d="M226.013 333.171C225.347 333.293 224.675 333.376 223.999 333.421C222.175 333.654 220.375 334.026 218.612 334.531C212.757 336.158 207.507 339.349 203.476 343.731C199.444 348.112 196.798 353.502 195.846 359.271C195.532 361.008 195.375 362.768 195.376 364.531C195.376 365.771 195.376 366.471 195.376 366.471C195.32 366.309 195.292 366.141 195.293 365.971C195.293 365.641 195.189 365.161 195.178 364.531C195.104 362.752 195.209 360.97 195.491 359.211C196.362 353.345 199.007 347.851 203.099 343.409C207.191 338.966 212.551 335.769 218.518 334.211C220.304 333.709 222.135 333.374 223.988 333.211C224.635 333.141 225.147 333.151 225.491 333.141C225.666 333.134 225.841 333.144 226.013 333.171Z" fill="white"/>
<path d="M194.823 375.32C194.585 374.337 194.521 373.323 194.635 372.32C194.563 371.31 194.673 370.295 194.958 369.32C195.273 371.313 195.227 373.343 194.823 375.32Z" fill="white"/>
<path d="M259.155 96.7695H208.372V109.64H259.155V96.7695Z" fill="#F5F5F5"/>
<path d="M237.683 123.201C237.683 123.201 237.683 123.121 237.683 122.971V122.311C237.683 121.701 237.683 120.851 237.683 119.771C237.683 117.551 237.683 114.361 237.6 110.331L237.756 110.481L186.973 110.581C187.088 110.471 186.713 110.821 187.234 110.331V116.851C187.234 118.998 187.234 121.108 187.234 123.181L186.984 122.941L223.174 123.051L233.852 123.121H236.744H237.495C237.586 123.112 237.677 123.112 237.767 123.121H237.537H236.806H233.978L223.351 123.191L186.984 123.301H186.733V123.061C186.733 120.988 186.733 118.878 186.733 116.731V110.211L186.994 109.961L237.777 110.061H237.934V110.211C237.934 114.271 237.871 117.501 237.85 119.741C237.85 120.811 237.85 121.641 237.85 122.241C237.85 122.501 237.85 122.711 237.85 122.871C237.85 123.031 237.694 123.201 237.683 123.201Z" fill="#E0E0E0"/>
<path d="M441.764 319.031H390.981V331.901H441.764V319.031Z" fill="#F5F5F5"/>
<path d="M420.292 345.459C420.285 345.38 420.285 345.299 420.292 345.219V344.559C420.292 343.959 420.292 343.109 420.292 342.029C420.292 339.809 420.24 336.619 420.209 332.589L420.365 332.739L369.582 332.839C369.697 332.729 369.321 333.079 369.833 332.589V345.439L369.582 345.199L405.772 345.309L416.451 345.379H419.342H420.094H420.365H420.125H419.405H416.576L405.95 345.449L369.52 345.699H369.259V332.609L369.52 332.359L420.303 332.459H420.459V332.609C420.459 336.669 420.397 339.899 420.376 342.139C420.376 343.209 420.376 344.039 420.376 344.639C420.376 344.899 420.376 345.109 420.376 345.269C420.352 345.334 420.324 345.398 420.292 345.459Z" fill="#E0E0E0"/>
<path d="M108.831 76.6098C108.822 76.5334 108.822 76.4562 108.831 76.3798C108.831 76.2098 108.831 75.9898 108.831 75.7198C108.831 75.1098 108.831 74.2698 108.831 73.1798C108.831 70.9598 108.831 67.7698 108.747 63.7398L108.904 63.8898L58.0481 63.9998C58.1629 63.8898 57.7871 64.2498 58.2986 63.7498V76.6098L58.0481 76.3698L94.238 76.4798L104.917 76.5498H107.808H108.56H108.831C108.751 76.5592 108.671 76.5592 108.591 76.5498H107.871H105.031L94.4155 76.6198L58.0481 76.7298H57.7871V63.7598L58.0481 63.5098L108.831 63.6098H108.988V63.7598C108.988 67.8298 108.925 71.0498 108.904 73.2898C108.904 74.3598 108.904 75.1998 108.904 75.7898C108.904 76.0498 108.904 76.2598 108.904 76.4298C108.885 76.4915 108.86 76.5517 108.831 76.6098Z" fill="#E0E0E0"/>
<path d="M411.649 58.1293C411.649 58.1293 411.649 58.0393 411.649 57.8893V57.2293C411.649 56.6293 411.649 55.7793 411.649 54.6993C411.649 52.4793 411.649 49.2793 411.566 45.2593L411.722 45.4093L360.939 45.4993L361.2 45.2593V51.7993C361.2 53.9526 361.2 56.0626 361.2 58.1293L360.95 57.8893L397.14 57.9993L407.818 58.0593H410.71H411.472C411.558 58.0511 411.646 58.0511 411.733 58.0593H411.503H410.772H407.943L397.317 58.1293L360.95 58.2393H360.699V57.9993C360.699 55.9293 360.699 53.8193 360.699 51.6693V45.2793L360.96 45.0293L411.743 45.1293H411.9V45.2793C411.9 49.3393 411.837 52.5693 411.816 54.8093C411.816 55.8793 411.816 56.7093 411.816 57.3093V57.9393C411.77 58.0101 411.714 58.0741 411.649 58.1293Z" fill="#E0E0E0"/>
<path d="M418.581 45.2602C418.573 45.177 418.573 45.0934 418.581 45.0102C418.581 44.8302 418.581 44.6002 418.581 44.3302C418.581 43.7002 418.581 42.8402 418.581 41.7502C418.581 39.4902 418.519 36.3102 418.477 32.3902L418.665 32.5602L388.153 32.6302L388.404 32.3902V39.0002C388.404 41.1502 388.404 43.2402 388.404 45.2402L388.164 45.0002L409.99 45.1102L416.347 45.1802H418.059H418.675C418.491 45.1945 418.306 45.1945 418.122 45.1802H416.452L410.189 45.2402L388.195 45.3502H387.944V45.1202C387.944 43.1202 387.944 41.0302 387.944 38.8802V32.4102C387.882 32.4102 388.435 31.9402 388.205 32.1602L418.717 32.2302H418.905V32.4102C418.905 36.4102 418.821 39.5902 418.8 41.8802C418.8 42.9502 418.8 43.7902 418.8 44.4202C418.8 45.0502 418.581 45.2702 418.581 45.2602Z" fill="#E0E0E0"/>
<path d="M91.1901 365.001C91.1857 364.924 91.1857 364.847 91.1901 364.771C91.1901 364.601 91.1901 364.381 91.1901 364.111C91.1901 363.501 91.1901 362.661 91.1901 361.581C91.1901 359.361 91.1901 356.161 91.1066 352.131L91.2632 352.281L40.4803 352.381L40.7413 352.131V358.661C40.7413 360.807 40.7413 362.917 40.7413 364.991L40.4908 364.751L76.6807 364.861L87.3592 364.931H90.2507H91.0127H91.2736C91.2736 364.931 91.2006 364.931 91.044 364.931H90.3133H87.4845L76.8582 365.001L40.4908 365.111H40.2402V365.001C40.2402 362.931 40.2402 360.821 40.2402 358.671V352.141C40.7622 351.651 40.3864 352.011 40.5012 351.901L91.2841 351.991H91.4407V352.141C91.4407 356.211 91.378 359.431 91.3571 361.681C91.3571 362.751 91.3571 363.581 91.3571 364.181V364.811C91.2006 365.001 91.2006 365.001 91.1901 365.001Z" fill="#E0E0E0"/>
<path d="M98.1211 352.15C98.1129 352.07 98.1129 351.99 98.1211 351.91C98.1211 351.72 98.1211 351.5 98.1211 351.23C98.1211 350.59 98.1211 349.73 98.1211 348.65C98.1211 346.39 98.0585 343.2 98.0167 339.28L98.2046 339.46L67.6931 339.53C67.4635 339.75 68.0063 339.23 67.9437 339.28V345.9C67.9437 348.06 67.9437 350.14 67.9437 352.14L67.7036 351.91L89.5303 352.02L95.8873 352.09H97.5992H98.2151C98.0309 352.104 97.8459 352.104 97.6618 352.09H95.9917L89.7286 352.16L67.7349 352.27H67.4844V352.03C67.4844 350.03 67.4844 347.95 67.4844 345.79V339.17L67.7453 338.92L98.1211 339.1H98.309V339.28C98.309 343.28 98.2255 346.47 98.2046 348.75C98.2046 349.82 98.2046 350.67 98.2046 351.3C98.2046 351.93 98.1211 352.17 98.1211 352.15Z" fill="#E0E0E0"/>
<path d="M251.107 259.19C251.097 259.113 251.097 259.036 251.107 258.96V258.3C251.107 257.69 251.107 256.85 251.107 255.77C251.107 253.54 251.054 250.35 251.023 246.32L251.18 246.47L200.397 246.57C200.512 246.46 200.136 246.82 200.647 246.32V259.17L200.397 258.93L236.587 259.04L247.265 259.11H250.157H250.908H251.18H250.939H250.219H247.38L236.764 259.17L200.397 259.28H200.136V246.18L200.397 245.93L251.18 246.03H251.336V246.18C251.336 250.25 251.274 253.47 251.253 255.72C251.253 256.78 251.253 257.62 251.253 258.21V258.85C251.222 258.969 251.173 259.084 251.107 259.19Z" fill="#E0E0E0"/>
<path d="M257.996 246.32C257.981 246.241 257.981 246.159 257.996 246.08C257.996 245.89 257.996 245.67 257.996 245.39L257.944 242.81C257.944 240.56 257.944 237.37 257.85 233.45L258.038 233.63L227.516 233.7L227.777 233.45V240.07C227.777 242.22 227.777 244.31 227.777 246.31L227.526 246.08L249.353 246.19L255.721 246.25H257.433H258.048C257.861 246.263 257.672 246.263 257.485 246.25H255.825L249.562 246.32L227.568 246.43H227.328V246.19C227.328 244.19 227.328 242.1 227.328 239.95V233.33C227.328 233.38 227.829 232.86 227.589 233.08L258.111 233.15H258.299V233.33C258.299 237.33 258.226 240.52 258.205 242.8C258.205 243.87 258.205 244.72 258.153 245.34C258.101 245.96 258.007 246.33 257.996 246.32Z" fill="#E0E0E0"/>
<path d="M447.808 470C447.808 470.539 361.107 471 254.188 471C147.269 471 60.543 470.423 60.543 470C60.543 469.577 147.226 469 254.188 469C361.149 469 447.808 469.462 447.808 470Z" fill="#E0E0E0"/>
<path d="M61.01 414.52L43.04 438.92L73.3 461.44C75.3 458.44 63.93 440.96 63.93 440.96L76.09 425.8L61.01 414.52Z" fill="#455A64"/>
<path d="M55.5899 432.702C55.234 432.572 54.8428 432.579 54.4918 432.721C54.1409 432.864 53.8551 433.131 53.6899 433.472C53.5493 433.824 53.5487 434.217 53.6881 434.57C53.8274 434.924 54.0963 435.21 54.4399 435.372C54.8169 435.504 55.2297 435.493 55.5989 435.34C55.9681 435.187 56.2676 434.902 56.4399 434.542C56.5504 434.158 56.5079 433.747 56.3214 433.395C56.1348 433.042 55.8188 432.776 55.4399 432.652" fill="white"/>
<path d="M43 438.979L44.91 436.359L73.18 459.119C73.18 459.119 74.08 460.719 73.18 461.549L43 438.979Z" fill="#263238"/>
<path d="M64.59 441.181C64.48 441.331 63.69 440.851 62.59 440.781C61.49 440.711 60.66 441.051 60.59 440.891C60.52 440.731 61.36 440.041 62.66 440.141C63.96 440.241 64.67 441.071 64.59 441.181Z" fill="#263238"/>
<path d="M66.7402 444.862C66.6602 445.032 65.8402 444.802 64.8702 445.052C63.9002 445.302 63.2702 445.862 63.1202 445.742C62.9702 445.622 63.5102 444.742 64.7202 444.432C65.9302 444.122 66.8402 444.722 66.7402 444.862Z" fill="#263238"/>
<path d="M65.71 450.001C65.55 449.931 65.9 449.001 66.88 448.511C67.86 448.021 68.79 448.181 68.76 448.351C68.73 448.521 67.98 448.631 67.19 449.081C66.4 449.531 65.87 450.091 65.71 450.001Z" fill="#263238"/>
<path d="M66.9305 437.421C66.7605 437.511 66.2405 436.801 65.3605 436.241C64.4805 435.681 63.6405 435.451 63.6505 435.241C63.6605 435.031 64.6505 434.991 65.7105 435.671C66.7705 436.351 67.0905 437.361 66.9305 437.421Z" fill="#263238"/>
<path d="M134.17 312.379C134.71 315.439 135.57 341.469 136.12 355.199C136.67 368.929 135.3 375.679 133.73 378.759C132.16 381.839 72.9504 425.469 68.4404 435.919L53.4404 423.829C53.4404 423.829 75.4404 384.339 84.8204 377.159C94.2004 369.979 112.25 363.389 112.25 363.389L107.12 288.199L131.71 286.859L134.17 312.379Z" fill="#242734"/>
<path d="M79.1399 438.65L78.8799 468.92L116.59 469.44C116.42 465.84 97.0099 458.33 97.0099 458.33L98.0099 438.92L79.1399 438.65Z" fill="#455A64"/>
<path d="M85.37 456.581C85.0062 456.686 84.6938 456.921 84.4927 457.242C84.2917 457.563 84.2159 457.947 84.28 458.321C84.3728 458.688 84.6024 459.007 84.922 459.211C85.2416 459.416 85.6272 459.491 86 459.421C86.3843 459.306 86.713 459.054 86.9233 458.713C87.1336 458.372 87.2108 457.965 87.14 457.571C87.006 457.197 86.7318 456.889 86.3753 456.714C86.0188 456.538 85.6081 456.509 85.23 456.631" fill="white"/>
<path d="M78.8701 469.031V465.781L115.12 467.661C115.12 467.661 116.78 468.431 116.57 469.611L78.8701 469.031Z" fill="#263238"/>
<path d="M97.59 458.19C97.59 458.38 96.66 458.45 95.75 459.03C94.84 459.61 94.34 460.37 94.17 460.3C94 460.23 94.29 459.16 95.41 458.48C96.53 457.8 97.67 458.02 97.59 458.19Z" fill="#263238"/>
<path d="M101.59 459.922C101.59 460.102 100.82 460.402 100.19 461.172C99.5603 461.942 99.3603 462.772 99.1903 462.752C99.0203 462.732 98.9003 461.702 99.7103 460.752C100.52 459.802 101.59 459.712 101.59 459.922Z" fill="#263238"/>
<path d="M103.74 464.649C103.57 464.649 103.33 463.759 103.81 462.759C104.29 461.759 105.17 461.369 105.24 461.519C105.31 461.669 104.78 462.209 104.39 463.039C104 463.869 103.92 464.629 103.74 464.649Z" fill="#263238"/>
<path d="M97.3503 453.741C97.2703 453.911 96.4303 453.641 95.3503 453.741C94.2703 453.841 93.4903 454.111 93.3503 453.951C93.2103 453.791 94.0403 453.151 95.2703 453.101C96.5003 453.051 97.4403 453.601 97.3503 453.741Z" fill="#263238"/>
<path d="M136.89 283.752C136.89 285.522 139.76 330.332 125.11 362.752C125.11 362.752 120.04 372.892 119.11 377.322C118.18 381.752 99.23 455.232 99.23 455.232L77.33 454.432C77.33 454.432 73.83 417.622 77.33 396.312C80.83 375.002 87.33 377.502 87.33 363.742C87.33 349.982 84.06 321.452 84.06 321.452C84.06 321.452 79.28 313.662 77.65 298.552C76.32 286.282 82.1 273.132 82.1 273.132L87.81 263.022L136.12 260.492L136.89 283.752Z" fill="#242734"/>
<path d="M136.89 283.752C136.89 283.752 136.89 283.232 136.89 282.222C136.89 281.212 136.83 279.712 136.79 277.742C136.7 273.792 136.55 267.972 136.37 260.452V260.342H136.25L87.94 262.802H87.84L87.78 262.892C86.01 266.032 84.06 269.462 82.06 273.002C80.5726 276.59 79.4112 280.305 78.59 284.102C77.6828 288.099 77.2764 292.194 77.38 296.292C77.6844 300.571 78.3535 304.816 79.38 308.982C80.3703 313.355 81.9268 317.581 84.01 321.552V321.452C84.84 328.912 85.61 336.642 86.26 344.602C86.58 348.602 86.86 352.602 87.06 356.712C87.16 358.712 87.24 360.812 87.25 362.882C87.25 363.882 87.25 364.952 87.19 365.982C87.1189 367.015 86.992 368.043 86.81 369.062C86.4007 371.115 85.6754 373.091 84.66 374.922C83.66 376.792 82.66 378.642 81.66 380.592C79.849 384.549 78.5292 388.714 77.73 392.992C75.99 401.592 75.64 410.532 75.54 419.542C75.54 431.432 76.1 443.112 77.08 454.402V454.642H77.31L99.21 455.442H99.42L99.47 455.232C105.82 430.622 111.74 407.622 116.96 386.942L118.85 379.292C119.18 378.022 119.39 376.762 119.78 375.562C120.17 374.362 120.61 373.172 121.07 372.012C122.01 369.692 123.07 367.442 124.07 365.252L124.85 363.622C125.127 363.089 125.374 362.542 125.59 361.982C126.04 360.872 126.49 359.782 126.94 358.692C130.05 350.627 132.364 342.277 133.85 333.762C135.992 321.631 137.096 309.34 137.15 297.022C137.21 288.402 136.86 283.722 136.86 283.722C136.86 283.722 136.86 284.012 136.86 284.582C136.86 285.152 136.86 286.022 136.92 287.142C136.98 289.392 137.02 292.712 136.92 297.022C136.828 309.33 135.714 321.608 133.59 333.732C132.07 342.22 129.725 350.539 126.59 358.572L125.25 361.842C125.03 362.402 124.78 362.932 124.51 363.472C124.24 364.012 123.98 364.562 123.72 365.112C122.72 367.302 121.66 369.552 120.72 371.882C120.25 373.052 119.8 374.242 119.41 375.462C119.02 376.682 118.79 377.972 118.47 379.212C117.84 381.732 117.21 384.272 116.56 386.862C111.25 407.522 105.34 430.522 99.01 455.132L99.27 454.942L77.37 454.132L77.63 454.372C76.63 443.102 76.05 431.432 76.09 419.562C76.19 410.562 76.54 401.662 78.27 393.122C79.0667 388.883 80.3729 384.757 82.16 380.832C83.06 378.902 84.16 377.072 85.16 375.172C86.1687 373.292 86.8836 371.268 87.28 369.172C87.4697 368.13 87.5999 367.078 87.67 366.022C87.67 365.022 87.77 363.922 87.73 362.892C87.73 360.812 87.64 358.742 87.54 356.692C87.34 352.592 87.05 348.552 86.72 344.572C86.0534 336.572 85.2967 328.848 84.45 321.402V321.342C82.3661 317.422 80.8029 313.247 79.8 308.922C78.7793 304.786 78.1103 300.571 77.8 296.322C77.6924 292.262 78.0887 288.204 78.98 284.242C79.7858 280.483 80.9202 276.802 82.37 273.242L88.07 263.122L87.91 263.222L136.22 260.612L136.09 260.502C136.33 268.012 136.51 273.832 136.63 277.782C136.7 279.782 136.75 281.242 136.79 282.262C136.83 283.282 136.89 283.752 136.89 283.752Z" fill="#455A64"/>
<path d="M121.18 191.992C121.18 191.992 108.18 189.692 109.39 206.422C110.15 216.422 113.09 233.582 114.72 244.532C115.28 248.322 116.52 255.102 121.53 259.082L157.43 283.922L168.76 270.372L136.7 239.842L131.7 209.642L121.18 191.992Z" fill="#455A64"/>
<path d="M122.71 131.691C124.771 133.351 126.401 135.482 127.463 137.905C128.525 140.328 128.987 142.972 128.81 145.611C128.61 148.171 127.9 151.081 129.57 153.031C131.24 154.981 134.44 154.911 136.02 156.891C137.87 159.231 136.32 162.711 137.02 165.621C137.377 166.981 138.206 168.169 139.358 168.973C140.511 169.777 141.912 170.145 143.31 170.011C140.029 172.697 136.071 174.427 131.87 175.011L128.59 170.921C129.81 172.361 129.48 174.651 128.31 176.121C127.039 177.49 125.4 178.462 123.59 178.921C119.282 180.247 114.727 180.56 110.278 179.837C105.829 179.113 101.607 177.373 97.9404 174.751" fill="#263238"/>
<path d="M74.6803 154.261C75.3203 152.261 76.4003 150.491 76.8303 148.481C77.7503 144.151 75.6403 139.271 77.7403 135.371C79.2403 132.601 82.4203 131.241 85.4403 130.311C88.4603 129.381 91.6803 128.601 93.9303 126.391C95.5703 124.771 96.5103 122.531 98.1503 120.911C100.49 118.591 103.95 117.801 107.23 117.601C110.617 117.274 114.031 117.829 117.14 119.211C118.684 119.916 120.041 120.973 121.1 122.299C122.16 123.624 122.893 125.18 123.24 126.841C123.5 128.461 123.3 130.171 123.82 131.741C124.38 133.461 125.73 134.801 126.57 136.411C127.412 138.14 127.655 140.1 127.262 141.982C126.869 143.864 125.863 145.563 124.4 146.811L101.22 176.751C96.3503 178.591 84.5503 176.371 80.7903 172.751C77.0303 169.131 73.0703 159.211 74.6803 154.261Z" fill="#263238"/>
<path d="M123.79 143.011C122.79 136.211 117.66 128.181 110.91 129.421L90.07 136.421C88.07 136.801 89.49 140.151 89.69 142.221L94.22 189.221C94.22 189.221 91.4 191.221 90.4 190.841C90.3431 190.821 90.2814 190.819 90.2234 190.836C90.1655 190.853 90.1143 190.887 90.0769 190.935C90.0394 190.982 90.0177 191.04 90.0147 191.1C90.0117 191.16 90.0275 191.22 90.06 191.271C92.59 194.921 104.38 210.791 116.59 205.921C119.31 204.831 116.3 196.261 116.59 193.091L116.23 184.981C115.96 180.841 115.83 179.141 115.83 179.181C115.83 179.221 124.45 177.061 125.38 165.531C125.85 159.821 124.85 150.561 123.79 143.011Z" fill="#FFBF9D"/>
<path d="M122.34 153.472C122.371 153.852 122.252 154.23 122.01 154.525C121.767 154.82 121.419 155.009 121.04 155.052C120.855 155.081 120.666 155.074 120.484 155.029C120.302 154.984 120.131 154.904 119.981 154.792C119.831 154.68 119.705 154.539 119.61 154.378C119.515 154.216 119.454 154.037 119.43 153.852C119.399 153.471 119.517 153.093 119.76 152.798C120.002 152.503 120.35 152.315 120.73 152.272C120.915 152.242 121.103 152.25 121.285 152.294C121.467 152.339 121.638 152.42 121.788 152.531C121.938 152.643 122.064 152.784 122.159 152.946C122.254 153.107 122.315 153.286 122.34 153.472Z" fill="#263238"/>
<path d="M108.14 154.362C108.174 154.742 108.058 155.12 107.817 155.415C107.576 155.71 107.229 155.899 106.85 155.942C106.666 155.97 106.477 155.962 106.296 155.917C106.114 155.871 105.944 155.791 105.794 155.679C105.644 155.567 105.518 155.427 105.423 155.266C105.328 155.105 105.266 154.927 105.24 154.742C105.209 154.362 105.328 153.984 105.57 153.689C105.813 153.394 106.161 153.205 106.54 153.162C106.724 153.133 106.913 153.14 107.094 153.185C107.275 153.23 107.446 153.311 107.595 153.423C107.744 153.535 107.869 153.675 107.963 153.837C108.057 153.998 108.117 154.177 108.14 154.362Z" fill="#263238"/>
<path d="M122.86 148.65C122.7 148.92 121.34 148.06 119.64 148.31C117.94 148.56 116.85 149.72 116.64 149.51C116.43 149.3 116.64 148.95 117.13 148.42C117.745 147.729 118.586 147.28 119.503 147.154C120.419 147.027 121.35 147.231 122.13 147.73C122.69 148.12 122.94 148.53 122.86 148.65Z" fill="#263238"/>
<path d="M107.59 149.92C107.39 150.17 106.06 149.2 104.23 149.28C102.4 149.36 101.1 150.39 100.89 150.16C100.68 149.93 100.98 149.62 101.55 149.16C102.299 148.542 103.231 148.19 104.2 148.16C105.165 148.122 106.116 148.407 106.9 148.97C107.47 149.38 107.68 149.8 107.59 149.92Z" fill="#263238"/>
<path d="M113.32 160.691C114.127 160.361 114.974 160.139 115.84 160.031C116.23 159.961 116.61 159.851 116.65 159.571C116.655 159.153 116.529 158.744 116.29 158.401C115.84 157.461 115.37 156.471 114.87 155.401C112.87 151.171 111.42 147.691 111.59 147.611C111.76 147.531 113.51 150.891 115.49 155.111C115.97 156.161 116.43 157.111 116.86 158.111C117.152 158.575 117.269 159.128 117.19 159.671C117.144 159.817 117.065 159.951 116.959 160.062C116.854 160.173 116.724 160.258 116.58 160.311C116.363 160.385 116.138 160.432 115.91 160.451C115.059 160.633 114.19 160.713 113.32 160.691Z" fill="#263238"/>
<path d="M115.83 179.201C110.474 179.692 105.088 178.689 100.27 176.301C100.27 176.301 104.72 184.001 116.03 182.061L115.83 179.201Z" fill="#FF9A6C"/>
<path d="M108.53 165.27C108.708 164.875 108.983 164.531 109.33 164.27C109.754 164.068 110.235 164.022 110.69 164.14C111.365 164.239 111.99 164.554 112.47 165.04C112.705 165.285 112.871 165.588 112.95 165.919C113.029 166.249 113.019 166.595 112.92 166.92C112.74 167.58 111.76 167.92 111.09 168.06C110.396 168.161 109.688 168.016 109.09 167.65C108.83 167.531 108.602 167.351 108.428 167.124C108.254 166.898 108.138 166.632 108.09 166.35C108.134 165.956 108.286 165.583 108.53 165.27Z" fill="#FF9A6C"/>
<path d="M108.85 163.061C109.1 163.061 109.24 164.731 110.79 165.831C112.34 166.931 114.14 166.601 114.17 166.831C114.2 167.061 113.8 167.191 113.03 167.271C112.031 167.362 111.032 167.096 110.21 166.521C109.418 165.973 108.872 165.137 108.69 164.191C108.59 163.501 108.73 163.061 108.85 163.061Z" fill="#263238"/>
<path d="M107.45 143.771C107.32 144.201 105.74 144.121 103.91 144.491C102.08 144.861 100.63 145.491 100.36 145.101C100.24 144.931 100.46 144.511 101.03 144.051C101.793 143.482 102.677 143.096 103.613 142.922C104.55 142.749 105.513 142.793 106.43 143.051C107.13 143.251 107.5 143.561 107.45 143.771Z" fill="#263238"/>
<path d="M121.89 142.921C121.6 143.301 120.34 143.031 118.89 143.131C117.44 143.231 116.16 143.581 115.84 143.231C115.7 143.061 115.84 142.681 116.39 142.301C117.113 141.825 117.954 141.558 118.82 141.531C119.68 141.469 120.54 141.653 121.3 142.061C121.82 142.361 122.02 142.721 121.89 142.921Z" fill="#263238"/>
<path d="M85.4605 138.06C86.4605 136.44 88.4005 135.61 90.2005 134.92C97.9743 131.918 106.078 129.853 114.34 128.77C115.34 130.46 114.42 132.77 112.87 134C111.32 135.23 109.32 135.72 107.47 136.41C105.62 137.1 103.71 138.18 102.94 140.01C102.17 141.84 102.82 144.25 102.1 146.23C100.87 149.65 96.1005 150.75 94.9105 154.16C93.9905 156.75 95.4905 159.5 95.9105 162.22C96.1025 163.6 95.9979 165.006 95.6036 166.342C95.2093 167.679 94.5344 168.916 93.624 169.972C92.7135 171.027 91.5884 171.876 90.3238 172.462C89.0592 173.048 87.6842 173.357 86.2905 173.37C85.7305 163.576 85.1672 153.79 84.6005 144.01C84.4305 141.97 84.3505 139.77 85.4605 138.06Z" fill="#263238"/>
<path d="M65.7402 162.79C67.2902 161.4 69.2302 160.2 69.8402 158.22C70.7402 155.33 68.4202 151.94 69.9202 149.31C71.2802 146.91 75.2902 147.04 76.5602 144.59C77.5602 142.67 76.4102 140.98 76.7802 139.3C77.1502 137.62 79.5502 136.15 81.2502 136.35L94.5902 155.72C95.8302 162.22 97.0802 165.72 95.6902 169.48C94.7709 171.505 94.0767 173.624 93.6202 175.8C93.3202 178 93.8902 180.49 95.6802 181.8C87.6802 182.43 80.2002 178.25 73.2802 174.2L65.9902 169.92C65.1922 169.538 64.5041 168.96 63.9902 168.24C62.9002 166.46 64.2002 164.17 65.7402 162.79Z" fill="#263238"/>
<path d="M73.1104 172.23C73.3895 172.32 73.6781 172.377 73.9704 172.4C74.8046 172.48 75.6463 172.419 76.4604 172.22C77.7598 171.909 78.9558 171.265 79.9304 170.35C81.2176 169.112 82.0252 167.457 82.2104 165.68C82.3306 164.65 82.2421 163.606 81.9504 162.61C81.5918 161.549 81.0941 160.541 80.4704 159.61C79.809 158.666 79.2932 157.628 78.9404 156.53C78.7529 155.969 78.6943 155.373 78.7687 154.786C78.8432 154.199 79.0488 153.637 79.3704 153.14C80.0904 152.14 81.4404 151.93 82.7004 151.43C83.3809 151.186 83.9728 150.744 84.4004 150.16C84.794 149.537 84.986 148.807 84.9504 148.07C84.7774 146.658 84.4727 145.266 84.0404 143.91C83.8868 143.253 83.8868 142.568 84.0404 141.91C84.2165 141.247 84.6245 140.669 85.1904 140.28C86.4072 139.579 87.7858 139.207 89.1904 139.2C90.644 139.152 92.0616 138.736 93.3104 137.99C94.5255 137.25 95.5119 136.187 96.1604 134.92C96.6926 133.704 97.0301 132.412 97.1604 131.09C97.2991 129.867 97.5604 128.661 97.9404 127.49C98.3615 126.426 99.0021 125.461 99.8204 124.66C101.33 123.228 103.278 122.347 105.35 122.16C107.078 122.013 108.812 122.359 110.35 123.16C111.507 123.752 112.55 124.545 113.43 125.5C114.166 126.335 114.804 127.251 115.33 128.23C115.33 128.23 115.33 128.16 115.26 128.02C115.178 127.822 115.085 127.628 114.98 127.44C114.599 126.714 114.132 126.036 113.59 125.42C112.711 124.426 111.661 123.597 110.49 122.97C108.936 122.116 107.17 121.724 105.4 121.84C103.229 121.999 101.178 122.9 99.5904 124.39C98.7159 125.235 98.0337 126.258 97.5904 127.39C97.1939 128.583 96.9191 129.812 96.7704 131.06C96.6316 132.338 96.2942 133.587 95.7704 134.76C95.1606 135.941 94.241 136.933 93.1104 137.63C91.9189 138.329 90.571 138.718 89.1904 138.76C87.6856 138.757 86.2076 139.158 84.9104 139.92C84.2614 140.362 83.7929 141.022 83.5904 141.78C83.4151 142.52 83.4151 143.291 83.5904 144.03C84.0138 145.36 84.3151 146.726 84.4904 148.11C84.5316 148.753 84.3707 149.393 84.0304 149.94C83.6441 150.448 83.1198 150.833 82.5204 151.05C81.9304 151.3 81.2904 151.47 80.6704 151.73C80.0248 151.974 79.4554 152.385 79.0204 152.92C78.6672 153.473 78.4409 154.096 78.3579 154.746C78.2749 155.397 78.3372 156.057 78.5404 156.68C78.9148 157.813 79.4539 158.885 80.1404 159.86C80.7495 160.745 81.2371 161.706 81.5904 162.72C81.8737 163.666 81.9688 164.658 81.8704 165.64C81.7065 167.351 80.9494 168.95 79.7304 170.16C78.7973 171.064 77.6469 171.711 76.3904 172.04C75.3203 172.32 74.2055 172.384 73.1104 172.23Z" fill="#455A64"/>
<path d="M62.4504 158.461C62.3195 158.657 62.231 158.879 62.1904 159.111C62.0574 159.797 62.1782 160.508 62.5304 161.111C62.7744 161.542 63.1171 161.909 63.5304 162.181C64.0455 162.493 64.6384 162.652 65.2404 162.641C65.9719 162.625 66.6851 162.409 67.3022 162.016C67.9193 161.622 68.4168 161.067 68.7404 160.411C69.1207 159.658 69.3161 158.825 69.3104 157.981C69.2862 157.074 69.0964 156.18 68.7504 155.341C68.1204 153.611 66.9604 151.921 66.9404 149.901C66.9026 149.404 66.9654 148.904 67.1252 148.431C67.285 147.959 67.5384 147.523 67.8704 147.151C68.6812 146.482 69.723 146.158 70.7704 146.251C71.9359 146.336 73.1073 146.214 74.2304 145.891C74.8188 145.652 75.316 145.231 75.6504 144.691C75.9722 144.154 76.1736 143.554 76.2404 142.931C76.298 141.737 76.2005 140.54 75.9504 139.371C75.7713 138.274 75.8362 137.151 76.1404 136.081C76.7072 134.04 78.0349 132.293 79.8504 131.201C81.5737 130.323 83.4867 129.884 85.4204 129.921C87.1388 129.925 88.8469 129.655 90.4804 129.121C91.8084 128.634 93.0256 127.886 94.0604 126.921C94.8528 126.189 95.5274 125.339 96.0604 124.401C96.5294 123.623 96.8515 122.766 97.0104 121.871C96.7127 122.715 96.3412 123.532 95.9004 124.311C94.6405 126.414 92.7 128.023 90.4004 128.871C88.7806 129.367 87.0941 129.609 85.4004 129.591C83.4105 129.535 81.4379 129.975 79.6604 130.871C77.7513 131.991 76.3419 133.797 75.7204 135.921C75.4004 137.049 75.3287 138.233 75.5104 139.391C75.7444 140.522 75.8418 141.677 75.8004 142.831C75.7767 143.38 75.6029 143.911 75.2978 144.368C74.9928 144.825 74.5682 145.189 74.0704 145.421C73.0018 145.724 71.8879 145.836 70.7804 145.751C69.6205 145.65 68.4674 146.009 67.5704 146.751C67.2041 147.168 66.9265 147.655 66.7546 148.183C66.5827 148.711 66.52 149.268 66.5704 149.821C66.6145 150.859 66.8626 151.879 67.3004 152.821C67.6904 153.721 68.1204 154.561 68.4504 155.401C68.7859 156.197 68.9756 157.048 69.0104 157.911C69.024 158.7 68.8528 159.481 68.5104 160.191C68.2202 160.804 67.7675 161.326 67.2016 161.7C66.6357 162.073 65.9781 162.285 65.3004 162.311C64.7445 162.331 64.194 162.196 63.7104 161.921C63.2964 161.68 62.9519 161.335 62.7104 160.921C62.3598 160.365 62.2148 159.703 62.3004 159.051C62.3504 158.691 62.4804 158.471 62.4504 158.461Z" fill="#263238"/>
<path d="M146.68 163.23C146.918 163.906 146.918 164.643 146.68 165.32C146.548 165.708 146.33 166.061 146.043 166.354C145.756 166.647 145.406 166.871 145.02 167.01C144.506 167.161 143.959 167.167 143.442 167.025C142.924 166.884 142.456 166.602 142.09 166.21C141.67 165.748 141.426 165.153 141.4 164.53C141.381 163.85 141.486 163.172 141.71 162.53C142.13 161.18 143 159.71 142.87 157.94C142.807 157.042 142.557 156.168 142.137 155.372C141.717 154.577 141.136 153.878 140.43 153.32C139.691 152.728 138.846 152.283 137.94 152.01C137.015 151.753 136.06 151.615 135.1 151.6C134.17 151.592 133.242 151.495 132.33 151.31C131.479 151.134 130.717 150.663 130.18 149.98C129.705 149.278 129.438 148.456 129.41 147.61C129.366 146.784 129.433 145.957 129.61 145.15C130.049 143.627 130.291 142.054 130.33 140.47C130.25 139.063 129.752 137.712 128.9 136.59C128.18 135.699 127.298 134.952 126.3 134.39C125.571 133.958 124.873 133.477 124.21 132.95C123.667 132.484 123.224 131.912 122.91 131.27C122.91 131.27 122.91 131.27 122.91 131.41C122.95 131.545 123.003 131.676 123.07 131.8C123.32 132.286 123.659 132.72 124.07 133.08C124.718 133.644 125.411 134.155 126.14 134.61C127.094 135.177 127.935 135.916 128.62 136.79C129.413 137.866 129.866 139.154 129.92 140.49C129.861 142.038 129.609 143.573 129.17 145.06C128.977 145.905 128.899 146.773 128.94 147.64C128.977 148.573 129.275 149.477 129.8 150.25C130.396 151.021 131.247 151.556 132.2 151.76C133.138 151.952 134.093 152.056 135.05 152.07C135.976 152.082 136.896 152.209 137.79 152.45C138.639 152.713 139.432 153.13 140.13 153.68C140.787 154.198 141.33 154.846 141.724 155.585C142.118 156.323 142.355 157.135 142.42 157.97C142.56 159.58 141.76 160.97 141.32 162.42C141.089 163.115 140.987 163.847 141.02 164.58C141.064 165.278 141.35 165.94 141.83 166.45C142.241 166.88 142.764 167.186 143.341 167.333C143.917 167.479 144.524 167.461 145.09 167.28C145.504 167.119 145.876 166.866 146.177 166.541C146.479 166.215 146.702 165.825 146.83 165.4C147.011 164.878 147.039 164.316 146.91 163.78C146.867 163.584 146.789 163.398 146.68 163.23Z" fill="#263238"/>
<path d="M137.12 241.562V230.502C138.36 224.292 137.77 216.932 134.88 211.262C132.783 207.607 130.466 204.084 127.94 200.712L116.94 186.422C110.88 190.832 101.39 187.642 93.2498 184.682C93.2498 184.682 85.2498 189.132 81.4698 193.312C77.5398 197.712 90.9798 252.762 90.9798 252.762C84.8898 264.942 77.0298 275.762 75.8398 286.862L139.44 289.312L136.74 260.152L137.12 241.562Z" fill="#455A64"/>
<path d="M136.24 260.46C136.177 260.046 136.16 259.627 136.19 259.21C136.19 258.3 136.19 257.21 136.19 255.82C136.24 252.82 136.3 248.95 136.37 244.64C136.44 240.33 136.57 236.32 136.71 233.46C136.78 232.03 136.85 230.87 136.91 230.07C136.917 229.655 136.971 229.243 137.07 228.84C137.111 229.252 137.111 229.668 137.07 230.08C137.07 230.99 137.07 232.08 137.07 233.47C137.02 236.47 136.95 240.34 136.88 244.65C136.81 248.96 136.69 252.97 136.55 255.83C136.48 257.26 136.41 258.42 136.34 259.22C136.356 259.636 136.322 260.052 136.24 260.46Z" fill="#263238"/>
<path d="M165.29 270.52C165.29 270.52 171.49 270.86 175.29 273.26C179.09 275.66 185.29 279.4 187.84 284.03C189.01 286.16 185.68 286.61 184.03 285.38C182.38 284.15 179.87 281.81 178.62 281.53L177.37 281.24C178.511 283.822 179.783 286.346 181.18 288.8C182.47 290.8 183.59 294.12 179.71 294.27C179.71 294.27 177.1 297.67 174.46 295.15C174.46 295.15 172.4 298.24 169.08 293.96C169.08 293.96 167.14 296.41 166.34 295.47C165.54 294.53 162.89 293.05 162.12 289.99C160.965 286.428 159.63 282.926 158.12 279.5L165.29 270.52Z" fill="#FFBF9D"/>
<path d="M304.1 184.581C304.79 184.581 333.18 181.581 333.18 181.581C333.18 181.581 335.59 170.041 335.46 167.041C335.33 164.041 333.31 144.191 333.31 144.191L343.94 139.191C343.94 139.191 358.15 187.111 355.05 191.091C351.95 195.071 346.12 198.641 345.62 198.661C345.12 198.681 318.11 210.661 299.32 204.431C280.53 198.201 304.1 184.581 304.1 184.581Z" fill="#FFBF9D"/>
<path d="M279.22 210.45C283.4 214.6 290.6 218.05 302.62 215.05C326.38 209.11 344.19 204.05 351.27 200.25C358.35 196.45 355.59 179.47 356.19 178.7C357.98 176.38 356.01 171.4 353.46 170.62C346.19 168.42 333.54 169.29 332.9 169.95C329.17 173.87 332.57 178.63 332.57 178.63L301.24 182.74C297.388 182.559 293.528 182.804 289.73 183.47" fill="#455A64"/>
<path d="M289.73 183.472L290.48 183.312C290.98 183.222 291.72 183.092 292.7 182.972C295.535 182.615 298.395 182.494 301.25 182.612L332.57 178.412L332.42 178.762C331.391 177.248 330.885 175.439 330.98 173.612C331.065 172.666 331.374 171.755 331.88 170.952C332.134 170.548 332.422 170.167 332.74 169.812C332.865 169.719 333.003 169.645 333.15 169.592L333.51 169.502C333.75 169.442 333.98 169.422 334.21 169.372C338.09 168.924 342.004 168.844 345.9 169.132C347.945 169.256 349.978 169.537 351.98 169.972C352.48 170.082 352.98 170.232 353.5 170.362C354.033 170.532 354.522 170.819 354.93 171.202C355.725 171.957 356.331 172.889 356.7 173.922C357.097 174.956 357.237 176.071 357.11 177.172C357.018 177.744 356.803 178.29 356.48 178.772C356.39 178.872 356.4 179.142 356.39 179.402V180.202C356.46 182.352 356.56 184.542 356.5 186.742C356.516 189.865 356.005 192.968 354.99 195.922C354.468 197.401 353.573 198.721 352.39 199.752C351.777 200.23 351.105 200.627 350.39 200.932C349.73 201.282 349.03 201.552 348.39 201.872C345.65 203.042 342.9 204.002 340.19 204.872C337.48 205.742 334.82 206.582 332.19 207.352C321.73 210.352 312.19 212.782 304.25 214.772C302.353 215.273 300.43 215.67 298.49 215.962C296.751 216.204 294.995 216.298 293.24 216.242C290.421 216.181 287.64 215.577 285.05 214.462C283.426 213.745 281.911 212.802 280.55 211.662C280.071 211.274 279.623 210.85 279.21 210.392C279.21 210.392 279.67 210.832 280.62 211.582C281.998 212.681 283.519 213.589 285.14 214.282C287.714 215.344 290.466 215.911 293.25 215.952C294.986 215.993 296.722 215.886 298.44 215.632C300.367 215.328 302.276 214.92 304.16 214.412C312.16 212.412 321.62 209.952 332.05 206.892C334.66 206.122 337.32 205.302 340.05 204.402C342.78 203.502 345.49 202.552 348.2 201.402C348.86 201.092 349.55 200.822 350.2 200.472C350.868 200.178 351.496 199.801 352.07 199.352C353.186 198.382 354.031 197.137 354.52 195.742C355.505 192.827 355.995 189.768 355.97 186.692C356.03 184.502 355.97 182.332 355.86 180.172V179.352C355.86 179.212 355.86 179.072 355.86 178.922C355.852 178.842 355.852 178.761 355.86 178.682C355.882 178.62 355.909 178.56 355.94 178.502L355.99 178.422C356.271 178.012 356.456 177.543 356.53 177.052C356.647 176.035 356.513 175.005 356.14 174.052C355.804 173.097 355.249 172.234 354.52 171.532C354.166 171.2 353.742 170.95 353.28 170.802C352.78 170.672 352.28 170.532 351.79 170.412C349.814 169.983 347.808 169.706 345.79 169.582C341.935 169.287 338.061 169.361 334.22 169.802C333.99 169.802 333.76 169.862 333.54 169.922L333.22 169.992C333.15 170.019 333.083 170.052 333.02 170.092C332.719 170.42 332.448 170.775 332.21 171.152C331.734 171.887 331.445 172.729 331.37 173.602C331.283 175.32 331.753 177.021 332.71 178.452L332.91 178.762H332.56L301.22 182.762C298.381 182.618 295.536 182.698 292.71 183.002C291.71 183.102 290.98 183.212 290.48 183.282C289.98 183.352 289.73 183.472 289.73 183.472Z" fill="#263238"/>
<path d="M204.903 216.038L192.142 193.11L433.513 58.7651C436.294 57.2173 439.575 56.8375 442.636 57.7094C445.697 58.5813 448.286 60.6334 449.834 63.4143L450.928 65.3803C452.476 68.1612 452.856 71.443 451.984 74.5038C451.112 77.5647 449.06 80.1538 446.279 81.7016L204.908 216.047L204.903 216.038Z" fill="#2977EF"/>
<path d="M407.304 94.7832L377.749 41.684C377.606 41.427 377.515 41.1443 377.481 40.8521C377.447 40.5599 377.471 40.2639 377.552 39.981C377.633 39.6981 377.768 39.4338 377.951 39.2033C378.134 38.9728 378.36 38.7805 378.617 38.6374L392.178 31.0895C392.435 30.9464 392.718 30.8554 393.01 30.8216C393.302 30.7878 393.598 30.8118 393.881 30.8924C394.164 30.973 394.428 31.1085 394.659 31.2913C394.889 31.474 395.081 31.7003 395.225 31.9573L424.779 85.0565L407.304 94.7832Z" fill="#2977EF"/>
<path d="M349.163 70.0575L370.703 108.757C371.573 110.32 373.546 110.882 375.109 110.012L386.923 103.437C388.486 102.567 389.048 100.594 388.178 99.0301L366.638 60.3308C365.768 58.7673 363.795 58.2052 362.231 59.0755L350.418 65.6507C348.855 66.521 348.293 68.494 349.163 70.0575Z" fill="#2977EF"/>
<path d="M368.18 67.797L381.516 91.7559L408.655 76.6503L395.32 52.6914L368.18 67.797Z" fill="#2977EF"/>
<path d="M429.98 60.7817C430.05 60.9017 382.68 87.4017 324.2 119.962C265.72 152.522 218.2 178.822 218.2 178.692C218.2 178.562 265.49 152.072 323.99 119.502C382.49 86.9317 429.91 60.6517 429.98 60.7817Z" fill="#263238"/>
<path d="M107.15 260.33C124.95 292.33 162.48 305.33 190.98 289.48C219.48 273.63 228.18 234.83 210.38 202.87C192.58 170.91 155.06 157.87 126.55 173.72C98.0397 189.57 89.3597 228.37 107.15 260.33ZM194.94 211.47C207.41 233.87 201.32 261.04 181.34 272.15C161.36 283.26 135.07 274.15 122.6 251.73C110.13 229.31 116.22 202.16 136.19 191.04C156.16 179.92 182.47 189.07 194.94 211.47Z" fill="#2977EF"/>
<path d="M232.772 170.219L245.942 193.881C247.694 197.027 251.664 198.158 254.81 196.407L255.876 195.814C259.023 194.063 260.154 190.092 258.402 186.946L245.232 163.284C243.481 160.138 239.511 159.007 236.365 160.758L235.299 161.351C232.152 163.103 231.021 167.073 232.772 170.219Z" fill="#2977EF"/>
<path d="M258.065 156.141L271.235 179.803C272.987 182.949 276.957 184.08 280.103 182.329L281.169 181.736C284.316 179.985 285.447 176.014 283.695 172.868L270.525 149.206C268.774 146.06 264.804 144.929 261.657 146.68L260.591 147.273C257.445 149.025 256.314 152.995 258.065 156.141Z" fill="#2977EF"/>
<path d="M244.95 162.921C245.08 162.851 248.13 168.221 251.78 174.921C255.43 181.621 258.28 187.081 258.15 187.151C258.02 187.221 254.97 181.861 251.32 175.151C247.67 168.441 244.82 162.921 244.95 162.921Z" fill="#263238"/>
<path d="M233.34 171.171C233.47 171.101 236.45 176.231 240.01 182.611C243.57 188.991 246.34 194.241 246.22 194.311C246.1 194.381 243.11 189.251 239.59 182.921C236.07 176.591 233.22 171.241 233.34 171.171Z" fill="#263238"/>
<path d="M270.4 148.991C270.53 148.921 273.64 154.261 277.35 160.921C281.06 167.581 283.96 173.051 283.83 173.121C283.7 173.191 280.6 167.841 276.89 161.181C273.18 154.521 270.28 149.061 270.4 148.991Z" fill="#263238"/>
<path d="M258.19 156.36C258.31 156.29 261.36 161.6 264.98 168.22C268.6 174.84 271.45 180.22 271.32 180.33C271.19 180.44 268.16 175.09 264.53 168.47C260.9 161.85 258.06 156.43 258.19 156.36Z" fill="#263238"/>
<path d="M330.72 120.291C331.884 120.429 333.058 120.127 334.012 119.447C334.967 118.766 335.634 117.754 335.884 116.609C336.133 115.463 335.947 114.266 335.363 113.249C334.778 112.233 333.836 111.471 332.72 111.111C333.441 110.373 333.912 109.426 334.065 108.405C334.219 107.384 334.047 106.341 333.575 105.423C333.103 104.505 332.354 103.759 331.434 103.29C330.514 102.822 329.47 102.654 328.45 102.811C328.408 101.796 328.104 100.809 327.567 99.9458C327.031 99.0827 326.28 98.373 325.389 97.8859C324.497 97.3987 323.494 97.1505 322.478 97.1655C321.462 97.1805 320.467 97.4582 319.59 97.9715C318.446 97.0364 317.023 96.5108 315.546 96.4782C314.069 96.4456 312.624 96.9078 311.44 97.7915C310.445 97.6016 309.416 97.7373 308.504 98.1785C307.593 98.6197 306.848 99.3429 306.38 100.241C305.912 101.139 305.746 102.164 305.906 103.163C306.066 104.163 306.545 105.085 307.27 105.791" fill="#263238"/>
<path d="M310.43 102.451H311.43C316.472 102.455 321.328 104.358 325.03 107.781C328.733 111.204 331.01 115.895 331.41 120.921C332.16 130.611 332.86 141.321 332.78 146.521C332.59 157.321 321.85 158.921 321.85 158.921L322.72 171.861L296.59 171.011L294.42 124.111C293.5 112.921 299.23 103.071 310.43 102.451Z" fill="#FFBF9D"/>
<path d="M321.94 158.92C316.941 158.906 312.051 157.459 307.85 154.75C307.85 154.75 311.31 162.9 322.05 161.96L321.94 158.92Z" fill="#FF9A6C"/>
<path d="M325.5 131.071C325.502 131.472 325.348 131.858 325.069 132.146C324.791 132.434 324.41 132.601 324.01 132.611C323.814 132.625 323.618 132.6 323.433 132.537C323.248 132.474 323.077 132.376 322.93 132.246C322.783 132.117 322.663 131.96 322.577 131.784C322.491 131.608 322.441 131.417 322.43 131.221C322.429 130.821 322.584 130.435 322.862 130.146C323.14 129.857 323.519 129.687 323.92 129.671C324.116 129.658 324.313 129.684 324.499 129.747C324.685 129.81 324.856 129.91 325.003 130.04C325.15 130.171 325.27 130.329 325.355 130.506C325.44 130.683 325.49 130.875 325.5 131.071Z" fill="#263238"/>
<path d="M329.08 126.21C328.89 126.41 327.72 125.55 326.08 125.55C324.44 125.55 323.21 126.37 323.03 126.17C322.85 125.97 323.14 125.72 323.67 125.33C324.387 124.837 325.24 124.579 326.11 124.59C326.97 124.587 327.808 124.86 328.5 125.37C329 125.76 329.17 126.13 329.08 126.21Z" fill="#263238"/>
<path d="M310.59 130.351C310.598 130.758 310.445 131.151 310.164 131.445C309.883 131.739 309.496 131.91 309.09 131.921C308.895 131.935 308.699 131.909 308.513 131.847C308.328 131.784 308.157 131.685 308.01 131.556C307.863 131.426 307.743 131.269 307.657 131.093C307.571 130.918 307.521 130.726 307.51 130.531C307.507 130.129 307.661 129.742 307.94 129.453C308.218 129.163 308.598 128.994 309 128.981C309.194 128.966 309.39 128.99 309.575 129.05C309.76 129.111 309.932 129.208 310.08 129.335C310.227 129.463 310.349 129.618 310.436 129.792C310.524 129.967 310.576 130.156 310.59 130.351Z" fill="#263238"/>
<path d="M312.82 126.472C312.63 126.672 311.46 125.812 309.82 125.812C308.18 125.812 306.95 126.632 306.77 126.432C306.59 126.232 306.88 125.982 307.41 125.592C308.128 125.099 308.98 124.84 309.85 124.852C310.71 124.848 311.548 125.122 312.24 125.632C312.74 126.022 312.91 126.382 312.82 126.472Z" fill="#263238"/>
<path d="M318.78 138.761C319.652 138.487 320.556 138.326 321.47 138.281C321.89 138.281 322.29 138.161 322.37 137.871C322.405 137.436 322.307 137 322.09 136.621L320.85 133.401C319.13 128.811 317.85 125.041 318.07 124.981C318.29 124.921 319.8 128.571 321.52 133.151C321.93 134.281 322.33 135.361 322.71 136.391C322.969 136.904 323.043 137.49 322.92 138.051C322.857 138.199 322.761 138.331 322.64 138.437C322.519 138.543 322.375 138.619 322.22 138.661C321.989 138.73 321.75 138.763 321.51 138.761C320.603 138.875 319.686 138.875 318.78 138.761Z" fill="#263238"/>
<path d="M314.27 120.111C314.05 120.531 312.64 120.111 310.89 120.011C309.14 119.911 307.68 120.241 307.52 119.801C307.45 119.591 307.76 119.221 308.39 118.881C309.203 118.48 310.105 118.294 311.01 118.341C311.908 118.373 312.781 118.642 313.54 119.121C314.11 119.511 314.37 119.921 314.27 120.111Z" fill="#263238"/>
<path d="M329.18 119.4C328.83 119.77 327.46 119.4 325.82 119.4C324.18 119.4 322.82 119.65 322.47 119.25C322.33 119.06 322.55 118.68 323.16 118.33C324.001 117.889 324.942 117.679 325.89 117.72C326.833 117.733 327.755 117.998 328.56 118.49C329.14 118.83 329.33 119.21 329.18 119.4Z" fill="#263238"/>
<path d="M330.39 116.02C330.39 116.02 327.57 109.27 324.32 107.69C320.39 105.77 318.69 110.08 314.94 109.02C311.19 107.96 307.44 106.13 303.6 109.02C299.4 112.18 301.36 114.41 301.08 119.19C299.98 138.55 296.42 144.01 295.45 134.89C295.34 133.89 292.57 133.09 292.17 128.89C291.65 123.42 291.46 116.77 292.7 112.89C293.7 109.62 295.61 107.36 298.96 104.89C304.26 100.97 311.52 100.89 316.45 101.42C321.38 101.95 330.86 107.58 330.39 116.02Z" fill="#263238"/>
<path d="M296.13 134.59C296.119 134.195 296.028 133.807 295.862 133.448C295.697 133.089 295.46 132.768 295.166 132.503C294.873 132.238 294.528 132.036 294.154 131.908C293.78 131.781 293.384 131.73 292.99 131.76C290.99 131.95 288.74 133.08 288.86 137.23C289.07 144.59 296.42 142.86 296.43 142.64C296.44 142.42 296.25 137.67 296.13 134.59Z" fill="#FFBF9D"/>
<path d="M294.74 139.921C294.74 139.921 294.62 140.021 294.4 140.121C294.102 140.258 293.762 140.276 293.45 140.171C292.965 139.884 292.565 139.472 292.292 138.977C292.019 138.483 291.884 137.925 291.9 137.361C291.862 136.733 291.964 136.104 292.2 135.521C292.264 135.29 292.383 135.079 292.546 134.905C292.71 134.73 292.914 134.599 293.14 134.521C293.287 134.476 293.445 134.485 293.586 134.545C293.726 134.606 293.841 134.714 293.91 134.851C294.01 135.051 293.97 135.201 294.01 135.211C294.05 135.221 294.16 135.081 294.09 134.781C294.051 134.599 293.944 134.438 293.79 134.331C293.689 134.257 293.574 134.203 293.452 134.174C293.331 134.145 293.204 134.141 293.08 134.161C292.779 134.229 292.5 134.373 292.271 134.58C292.042 134.786 291.869 135.048 291.77 135.341C291.473 135.985 291.339 136.693 291.38 137.401C291.47 138.881 292.27 140.251 293.38 140.531C293.578 140.583 293.786 140.59 293.987 140.55C294.188 140.51 294.377 140.425 294.54 140.301C294.74 140.101 294.77 139.921 294.74 139.921Z" fill="#FF9A6C"/>
<path d="M296.32 120.331C297.221 121.064 298.29 121.563 299.43 121.781C300.003 121.87 300.589 121.75 301.08 121.441C301.571 121.132 301.933 120.656 302.1 120.101C302.19 119.591 302.1 118.991 302.4 118.601C302.7 118.211 303.55 118.281 304.16 118.351C306.3 118.581 308.81 116.221 309.36 114.141C309.638 114.539 310.058 114.817 310.533 114.918C311.009 115.018 311.505 114.933 311.92 114.681C312.601 114.265 313.203 113.734 313.7 113.111C313.99 112.714 314.372 112.393 314.812 112.175C315.253 111.958 315.739 111.85 316.23 111.861C316.748 112.039 317.285 112.157 317.83 112.211C318.83 112.131 319.27 111.001 319.42 110.041C319.57 109.081 319.69 107.971 320.51 107.451C321.352 107.121 322.283 107.096 323.14 107.381C324.03 107.521 325.14 107.311 325.41 106.441C325.447 106.208 325.437 105.971 325.38 105.742C325.324 105.514 325.222 105.299 325.08 105.111C324.486 104.219 323.607 103.554 322.587 103.223C321.567 102.893 320.465 102.917 319.46 103.291C319.107 102.06 318.394 100.962 317.415 100.138C316.435 99.3133 315.232 98.7992 313.958 98.6608C312.685 98.5225 311.4 98.7662 310.266 99.361C309.132 99.9557 308.2 100.875 307.59 102.001C306.812 101.287 305.872 100.773 304.851 100.501C303.831 100.23 302.759 100.209 301.729 100.441C300.699 100.673 299.74 101.15 298.934 101.833C298.128 102.515 297.499 103.382 297.1 104.361C296.2 104.12 295.249 104.15 294.366 104.447C293.483 104.743 292.706 105.292 292.132 106.027C291.559 106.761 291.214 107.648 291.141 108.577C291.068 109.506 291.269 110.435 291.72 111.251C291.035 111.589 290.447 112.096 290.012 112.724C289.576 113.352 289.307 114.08 289.23 114.841C289.23 116.361 290.68 117.841 292.15 117.481C291.846 118.08 291.782 118.772 291.972 119.417C292.162 120.062 292.591 120.609 293.172 120.947C293.753 121.285 294.442 121.388 295.096 121.234C295.75 121.08 296.321 120.682 296.69 120.121" fill="#263238"/>
<path d="M320 105.451C320 105.451 320 105.451 320 105.591C320 105.731 320 105.811 319.95 105.981C319.847 106.48 319.665 106.96 319.41 107.401C319.004 108.093 318.447 108.685 317.78 109.131C316.899 109.732 315.846 110.031 314.78 109.981L314.9 109.821C315.117 110.481 315.063 111.2 314.75 111.821C314.42 112.479 313.995 113.085 313.49 113.621C313.245 113.934 312.967 114.219 312.66 114.471C312.116 114.829 311.463 114.982 310.817 114.904C310.17 114.825 309.573 114.519 309.13 114.041L309.4 113.961C309.297 114.725 309.035 115.459 308.63 116.116C308.225 116.772 307.687 117.336 307.05 117.771C306.351 118.291 305.502 118.568 304.63 118.561C303.813 118.517 303.009 118.338 302.25 118.031L302.45 117.941C302.065 118.832 301.464 119.612 300.7 120.211C300.352 120.51 299.941 120.726 299.498 120.846C299.056 120.965 298.592 120.984 298.14 120.901C297.367 120.733 296.66 120.342 296.105 119.777C295.551 119.212 295.174 118.498 295.02 117.721L295.19 117.801C294.412 118.204 293.52 118.331 292.66 118.161C292.02 118.039 291.417 117.768 290.9 117.371C290.579 117.119 290.302 116.815 290.08 116.471C289.999 116.352 289.939 116.22 289.9 116.081C290.18 116.541 290.543 116.945 290.97 117.271C291.48 117.64 292.069 117.883 292.69 117.981C293.507 118.136 294.352 118.001 295.08 117.601L295.22 117.521V117.681C295.372 118.404 295.73 119.067 296.253 119.589C296.775 120.111 297.438 120.47 298.16 120.621C298.573 120.693 298.996 120.672 299.399 120.56C299.802 120.447 300.175 120.246 300.49 119.971C301.207 119.402 301.77 118.663 302.13 117.821L302.19 117.691H302.33C303.054 117.982 303.821 118.151 304.6 118.191C305.407 118.198 306.193 117.941 306.84 117.461C307.44 117.05 307.946 116.518 308.329 115.9C308.711 115.282 308.96 114.591 309.06 113.871V113.521L309.29 113.791C309.551 114.078 309.877 114.298 310.241 114.43C310.605 114.563 310.996 114.604 311.38 114.551C311.739 114.503 312.081 114.373 312.38 114.171C312.67 113.938 312.931 113.673 313.16 113.381C313.655 112.871 314.073 112.292 314.4 111.661C314.548 111.38 314.638 111.073 314.665 110.757C314.693 110.441 314.657 110.123 314.56 109.821L314.5 109.641H314.69C315.712 109.705 316.726 109.434 317.58 108.871C318.237 108.449 318.79 107.885 319.2 107.221C319.57 106.683 319.84 106.084 320 105.451Z" fill="#455A64"/>
<path d="M318.76 144.251C318.7 143.981 316.91 144.421 315.25 143.201C313.59 141.981 313.32 140.021 313.07 140.071C312.82 140.121 312.82 140.591 313 141.401C313.247 142.458 313.86 143.393 314.73 144.041C315.562 144.661 316.602 144.933 317.63 144.801C318.4 144.681 318.8 144.371 318.76 144.251Z" fill="#263238"/>
<path d="M374.22 424.041L381.32 448.231C381.32 448.231 408.32 449.131 410.05 453.481L363.59 468.921L350.97 431.671L374.22 424.041Z" fill="#455A64"/>
<path d="M366.3 450.999C365.899 451.284 365.617 451.707 365.509 452.187C365.4 452.666 365.471 453.169 365.71 453.599C365.979 454.011 366.395 454.303 366.873 454.417C367.352 454.53 367.855 454.456 368.28 454.209C368.705 453.906 369.003 453.456 369.115 452.947C369.228 452.437 369.148 451.903 368.89 451.449C368.564 451.049 368.096 450.789 367.583 450.726C367.071 450.663 366.554 450.8 366.14 451.109" fill="#E0E0E0"/>
<path d="M407.43 451.731C407.43 451.731 409.8 451.941 410.05 453.481L363.59 468.921L362.47 465.111L407.39 451.711" fill="#263238"/>
<path d="M381.99 447.741C382.06 447.971 380.99 448.451 380.09 449.551C379.19 450.651 378.94 451.801 378.7 451.781C378.46 451.761 378.37 450.341 379.45 449.031C380.53 447.721 381.97 447.521 381.99 447.741Z" fill="white"/>
<path d="M387.53 448.129C387.66 448.339 386.81 449.049 386.35 450.259C385.89 451.469 386.02 452.569 385.79 452.629C385.56 452.689 384.99 451.459 385.58 449.959C386.17 448.459 387.46 447.919 387.53 448.129Z" fill="white"/>
<path d="M392.24 453.04C392.05 453.16 391.36 452.13 391.53 450.7C391.7 449.27 392.59 448.41 392.75 448.57C392.91 448.73 392.47 449.57 392.35 450.79C392.23 452.01 392.46 452.92 392.24 453.04Z" fill="white"/>
<path d="M379.76 442.409C379.76 442.649 378.59 442.679 377.34 443.189C376.09 443.699 375.22 444.439 375.04 444.289C374.86 444.139 375.55 443.009 377.04 442.419C378.53 441.829 379.82 442.189 379.76 442.409Z" fill="white"/>
<path d="M265.88 424.251L255.77 447.351C255.77 447.351 275.86 465.351 274.41 469.831L228.91 451.831L243.18 415.191L265.88 424.251Z" fill="#455A64"/>
<path d="M242.48 439.821C241.991 439.782 241.504 439.925 241.113 440.222C240.722 440.519 240.454 440.949 240.36 441.431C240.304 441.919 240.437 442.41 240.73 442.804C241.024 443.198 241.456 443.465 241.94 443.551C242.46 443.589 242.975 443.435 243.388 443.118C243.801 442.801 244.083 442.342 244.18 441.831C244.18 440.831 243.27 439.691 242.29 439.831" fill="#E0E0E0"/>
<path d="M273.52 466.812C273.52 466.812 275.2 468.502 274.41 469.812L228.91 451.812L230.5 448.182L273.5 466.782" fill="#263238"/>
<path d="M256.59 447.41C256.5 447.63 255.35 447.29 253.97 447.57C252.59 447.85 251.64 448.57 251.47 448.39C251.3 448.21 252.14 447.07 253.81 446.76C255.48 446.45 256.73 447.22 256.59 447.41Z" fill="white"/>
<path d="M260.59 451.271C260.59 451.501 259.45 451.501 258.32 452.141C257.19 452.781 256.59 453.691 256.32 453.601C256.05 453.511 256.46 452.191 257.87 451.421C259.28 450.651 260.67 451.061 260.59 451.271Z" fill="white"/>
<path d="M261.05 458.05C260.83 458.05 260.96 456.79 262.05 455.8C263.14 454.81 264.33 454.73 264.35 454.95C264.37 455.17 263.47 455.57 262.62 456.4C261.77 457.23 261.28 458.12 261.05 458.05Z" fill="white"/>
<path d="M258.32 441.92C258.15 442.08 257.25 441.38 255.96 440.92C254.67 440.46 253.54 440.52 253.5 440.29C253.46 440.06 254.71 439.63 256.22 440.13C257.73 440.63 258.5 441.76 258.32 441.92Z" fill="white"/>
<path d="M282.91 297.352L266.97 362.012C266.97 362.012 238.22 410.412 233.35 434.632L259.65 444.972C259.65 444.972 278.78 398.322 284.39 389.762C286.914 385.925 289.815 382.351 293.05 379.092C295.153 377.005 296.661 374.395 297.42 371.532L309.49 325.402L282.91 297.352Z" fill="#242734"/>
<path d="M276.12 287.01C276.12 287.01 278.34 304.33 295.01 312.01L330.13 369.21C330.13 369.21 332.88 387.81 338.13 403.48C343.38 419.15 353.99 449.35 353.99 449.35L382.88 438.55L364.47 375.61L361.47 353.78L332.81 280.78L308.19 266.02L276.12 287.01Z" fill="#242734"/>
<path d="M276.12 287.011L276.65 286.651L278.24 285.591L284.48 281.471L308.14 265.921L308.22 265.871L308.3 265.921L332.94 280.651V280.711L361.66 353.641V353.691C362.61 360.591 363.66 367.981 364.66 375.521C369.66 392.521 374.96 410.711 380.44 429.451C381.327 432.471 382.207 435.471 383.08 438.451L383.15 438.681L382.92 438.761L354.03 449.561L353.78 449.651L353.7 449.401C348.7 434.891 343.86 420.921 339.29 407.671C338.14 404.361 337.01 401.081 336.07 397.801C335.13 394.521 334.28 391.261 333.51 388.041C331.99 381.601 330.77 375.311 329.81 369.211V369.291L294.89 312.071L294.95 312.121C290.727 310.146 286.976 307.289 283.95 303.741C281.733 301.137 279.913 298.218 278.55 295.081C277.707 293.144 277.038 291.136 276.55 289.081C276.38 288.401 276.28 287.871 276.22 287.511C276.16 287.151 276.15 286.971 276.15 286.971C276.15 286.971 276.15 287.151 276.26 287.501C276.37 287.851 276.43 288.381 276.62 289.071C277.136 291.1 277.825 293.08 278.68 294.991C280.06 298.096 281.886 300.984 284.1 303.561C287.137 307.072 290.887 309.894 295.1 311.841L330.29 369.001V369.051C331.29 375.131 332.49 381.411 334.01 387.841C334.78 391.051 335.62 394.301 336.57 397.571C337.52 400.841 338.64 404.101 339.79 407.411C344.38 420.661 349.21 434.631 354.23 449.131L353.9 448.981L382.79 438.181L382.63 438.491C381.763 435.511 380.883 432.511 379.99 429.491L364.23 375.551C363.23 368.011 362.17 360.621 361.23 353.721V353.781L332.62 280.781L332.7 280.871L308.1 266.081H308.25L284.59 281.561L278.29 285.621L276.67 286.671L276.12 287.011Z" fill="#455A64"/>
<path d="M291.59 163.44C291.59 163.44 283.17 169.92 279.08 177.16C274.18 185.83 273.65 198.68 273.5 218.64C273.35 237.1 276.11 242.23 275.05 249.19C272.96 262.78 271.41 308.39 271.41 308.39C271.41 308.39 298.41 298.02 303.65 293.39L308.92 288.81L342.71 299.98L335.89 258.46L331.21 206.71L325.21 179.26L324.21 168.49L295.19 156.83L291.59 163.44Z" fill="#455A64"/>
<path d="M323.12 167.922C323.47 167.992 322.29 170.362 320.21 173.842L320.12 173.982L319.96 173.922C317.03 172.782 313.15 171.352 308.91 169.802C304.13 168.062 299.81 166.442 296.72 165.182C295.17 164.552 293.93 164.022 293.08 163.632C292.629 163.458 292.194 163.243 291.78 162.992C292.255 163.098 292.717 163.252 293.16 163.452L296.85 164.842L309.09 169.312C313.33 170.862 317.2 172.312 320.09 173.552L319.85 173.632C322.03 170.222 323.32 167.972 323.12 167.922Z" fill="#263238"/>
<path d="M358.04 146.36C358.04 146.36 355.9 143.03 353.88 139.96C351.86 136.89 348.8 135.38 348.31 133.78C347.82 132.18 345.13 125.05 344.7 123.28C344.326 121.566 344.152 119.815 344.18 118.06C344.18 118.06 346.39 117.12 347.45 120.28C348.09 122.18 350.13 128.63 350.57 128.95C351.01 129.27 351.57 128.8 351.57 128.8C350.661 126.385 349.877 123.925 349.22 121.43C349.12 120.26 349.53 112.5 349.53 112.5C350.078 112.39 350.648 112.479 351.136 112.753C351.624 113.026 351.998 113.465 352.19 113.99C353.24 115.99 353.28 120.99 353.28 120.99L354.87 126.57L354.31 121.05L355.11 110.9C355.887 111.011 356.611 111.359 357.183 111.895C357.756 112.432 358.149 113.132 358.31 113.9C358.98 116.64 358.09 120.46 358.54 121.27C358.99 122.08 359.48 126.98 359.48 126.98C359.48 126.98 360.03 115.08 361.3 114.74C362.57 114.4 363.61 115.66 363.43 118.06C363.25 120.46 363.2 125.54 363.86 127.78C364.52 130.02 371.29 138.78 370.74 142.62C370.403 144.941 370.192 147.277 370.11 149.62H358.51L358.04 146.36Z" fill="#FFBF9D"/>
<path d="M317.35 176.331C318 176.581 345.71 183.441 345.71 183.441C345.71 183.441 351.9 173.441 352.81 170.541C353.72 167.641 358.59 148.321 358.59 148.321L370.3 147.221C370.3 147.221 367.3 197.111 363.06 199.801C358.82 202.491 352.06 203.851 351.62 203.701C351.18 203.551 321.67 205.601 306.12 193.351C290.57 181.101 317.35 176.331 317.35 176.331Z" fill="#FFBF9D"/>
<g opacity="0.3">
<path d="M297.49 202.74C300.464 206.107 304.432 208.439 308.82 209.4C316.17 211.02 331.82 213.89 331.82 213.89L331.06 206.21L297.06 202.57" fill="black"/>
</g>
<path d="M285.15 192.18C287.67 197.5 293.27 203.18 305.58 204.47C329.95 206.99 348.4 208.33 356.37 207.13C364.34 205.93 367.51 189.06 368.37 188.54C370.85 186.98 370.69 181.62 368.55 180.02C362.47 175.47 350.28 172.02 349.46 172.39C344.61 174.8 346.19 180.44 346.19 180.44L315.29 173.62C311.731 172.14 308.018 171.06 304.22 170.4" fill="#455A64"/>
<path d="M304.22 170.401C304.22 170.401 304.48 170.401 304.98 170.501C305.48 170.601 306.23 170.721 307.19 170.931C309.977 171.563 312.706 172.426 315.35 173.511L346.23 180.231L345.97 180.511C345.512 178.738 345.653 176.865 346.37 175.181C346.765 174.318 347.362 173.564 348.11 172.981C348.489 172.685 348.894 172.424 349.32 172.201C349.466 172.157 349.617 172.134 349.77 172.131H350.14C350.39 172.131 350.61 172.211 350.85 172.251C354.65 173.149 358.356 174.405 361.92 176.001C363.798 176.819 365.613 177.775 367.35 178.861C367.78 179.141 368.21 179.451 368.64 179.751C369.084 180.089 369.447 180.523 369.7 181.021C370.187 182.003 370.441 183.084 370.44 184.181C370.465 185.29 370.218 186.389 369.72 187.381C369.443 187.892 369.053 188.334 368.58 188.671C368.46 188.731 368.38 188.991 368.28 189.231L368.02 189.981C367.36 191.981 366.7 194.121 365.9 196.181C364.852 199.135 363.317 201.893 361.36 204.341C360.65 205.271 359.745 206.034 358.708 206.577C357.672 207.119 356.529 207.428 355.36 207.481C354.61 207.591 353.86 207.611 353.12 207.671C350.12 207.851 347.24 207.811 344.39 207.731C341.54 207.651 338.75 207.501 336.04 207.331C325.17 206.631 315.42 205.641 307.24 204.791C305.286 204.62 303.343 204.339 301.42 203.951C299.713 203.586 298.041 203.077 296.42 202.431C293.793 201.41 291.387 199.896 289.33 197.971C288.046 196.742 286.942 195.338 286.05 193.801C285.73 193.273 285.453 192.721 285.22 192.151C285.22 192.151 285.5 192.721 286.14 193.751C287.064 195.249 288.184 196.618 289.47 197.821C291.525 199.705 293.921 201.178 296.53 202.161C298.153 202.787 299.826 203.279 301.53 203.631C303.447 203.998 305.384 204.262 307.33 204.421C315.51 205.231 325.26 206.181 336.11 206.861C338.83 207.021 341.61 207.161 344.45 207.231C347.29 207.301 350.2 207.341 353.14 207.171C353.87 207.101 354.62 207.081 355.35 206.971C356.078 206.932 356.798 206.794 357.49 206.561C358.871 206.028 360.091 205.146 361.03 204.001C362.945 201.6 364.446 198.896 365.47 196.001C366.27 194.001 366.92 191.891 367.58 189.831L367.86 189.051C367.86 188.931 367.96 188.801 368.02 188.661C368.056 188.583 368.1 188.51 368.15 188.441C368.188 188.392 368.232 188.349 368.28 188.311L368.35 188.251C368.765 187.963 369.107 187.583 369.35 187.141C369.817 186.212 370.044 185.18 370.01 184.141C370.012 183.129 369.783 182.13 369.34 181.221C369.121 180.791 368.811 180.416 368.43 180.121C368 179.831 367.59 179.521 367.16 179.251C365.448 178.173 363.656 177.227 361.8 176.421C358.276 174.832 354.609 173.58 350.85 172.681C350.62 172.681 350.39 172.581 350.17 172.561H349.84H349.62C349.226 172.771 348.851 173.015 348.5 173.291C347.803 173.816 347.244 174.502 346.87 175.291C346.207 176.872 346.07 178.625 346.48 180.291L346.57 180.641L346.22 180.561L315.39 173.661C312.77 172.559 310.069 171.663 307.31 170.981C306.31 170.751 305.62 170.591 305.12 170.491C304.62 170.391 304.22 170.401 304.22 170.401Z" fill="#263238"/>
<path d="M356.37 190.09C355.66 189.914 354.984 189.62 354.37 189.22C352.837 188.365 351.425 187.309 350.17 186.08C348.91 184.856 347.808 183.479 346.89 181.98C346.473 181.366 346.153 180.692 345.94 179.98C347.311 182 348.846 183.904 350.53 185.67C352.341 187.315 354.296 188.795 356.37 190.09Z" fill="#263238"/>
<path d="M138.81 272.451C138.81 272.451 145.01 272.781 148.81 275.191C152.61 277.601 158.81 281.321 161.36 285.961C162.53 288.091 159.2 288.541 157.56 287.301C155.92 286.061 153.39 283.741 152.14 283.451L150.89 283.171C152.029 285.752 153.301 288.271 154.7 290.721C155.99 292.721 157.11 296.041 153.24 296.201C153.24 296.201 150.62 299.601 147.98 297.081C147.98 297.081 145.92 300.161 142.6 295.891C142.6 295.891 140.67 298.331 139.86 297.401C139.05 296.471 136.41 294.981 135.64 291.921C134.491 288.357 133.156 284.855 131.64 281.431L138.81 272.451Z" fill="#FFBF9D"/>
<path d="M86.0496 190.922C82.8715 191.945 80.1286 194.005 78.2596 196.772C75.8796 200.432 75.1496 206.772 75.8296 211.492C77.2696 221.442 81.8296 238.232 84.3996 249.012C85.2796 252.732 87.0896 259.392 92.3996 262.922L130.29 285.642L140.42 270.642L105.88 242.492L99.0496 203.912L86.0496 190.922Z" fill="#455A64"/>
<path d="M79.5 228.842C79.5519 228.968 79.5921 229.098 79.62 229.232L79.94 230.402C80.21 231.462 80.59 232.982 81.09 234.932C82.09 238.932 83.51 244.612 85.28 251.682C86.3076 255.533 88.4843 258.979 91.52 261.562C93.2541 262.95 95.1081 264.181 97.06 265.242L103.15 268.922L130.44 285.402L130.09 285.482L133.74 280.072L140.22 270.442L140.27 270.792L106.04 242.602H105.98V242.532C103.72 233.022 102.08 225.232 101.04 219.812C100.53 217.102 100.17 214.992 99.94 213.552C99.84 212.852 99.76 212.302 99.7 211.912C99.64 211.522 99.63 211.352 99.63 211.352C99.6843 211.532 99.7277 211.716 99.76 211.902C99.83 212.292 99.93 212.832 100.05 213.532C100.32 214.962 100.71 217.072 101.27 219.772C102.36 225.172 104.06 232.942 106.37 242.442L106.3 242.332L140.59 270.392L140.77 270.542L140.64 270.732L134.16 280.362L130.51 285.772L130.38 285.972L130.16 285.852L102.91 269.322L96.83 265.632C94.8651 264.56 92.998 263.319 91.25 261.922C88.1618 259.277 85.9594 255.748 84.94 251.812C83.23 244.722 81.86 238.992 80.94 235.022C80.49 233.022 80.13 231.532 79.88 230.472L79.59 229.242C79.5507 229.111 79.5206 228.977 79.5 228.842Z" fill="#263238"/>
<path d="M80.1201 196.251C80.3554 196.097 80.616 195.985 80.8901 195.921C81.616 195.697 82.3582 195.53 83.1101 195.421C85.6183 195.034 88.1849 195.382 90.5001 196.421C92.7378 197.588 94.6385 199.309 96.0201 201.421C96.439 202.059 96.7751 202.748 97.0201 203.471C97.1275 203.728 97.1884 204.003 97.2001 204.281C96.7679 203.363 96.27 202.477 95.7101 201.631C94.2867 199.66 92.4243 198.048 90.2701 196.921C88.0359 195.931 85.579 195.551 83.1501 195.821C81.2801 195.971 80.1501 196.341 80.1201 196.251Z" fill="#263238"/>
</g>
<defs>
<clipPath id="clip0_225_503">
<rect width="500" height="500" fill="white"/>
</clipPath>
</defs>
</svg>
